<svg xmlns="http://www.w3.org/2000/svg" viewBox="0 0 512 512">
  <defs>
    <style type="text/css">
      <![CDATA[
      path {
          fill: none;
          stroke-width: 2px;
          stroke: currentColor;
          vector-effect: non-scaling-stroke;
          }
    ]]>
    </style>
  </defs>
<path d="M64 69H6c-2.8 0-5-2.2-5-5V18c0-2.8 2.2-5 5-5h58c2.8 0 5 2.2 5 5v46c0 2.8-2.2 5-5 5z"></path>
<path d="M21 20V5c0-2.2 1.8-4 4-4h18c2.2 0 4 1.8 4 4v15M1 27h68"></path>
<circle cx="8" cy="20" r="1"></circle>
<path d="M49.2 55.5c-2.7 5.1-8 8.5-14.2 8.5-8.8 0-16-7.2-16-16v-.9M21.6 39.2C24.5 34.8 29.4 32 35 32c8 0 14.6 5.9 15.8 13.6.1.8.2 1.6.2 2.4"></path>
<path d="M12.8 50.2l6.2-3.6 6.2 3.6M57.2 44.9L51 48.5l-6.2-3.6"></path>
</svg>
